<svg width="80" height="80" viewBox="0 0 80 80" fill="none" xmlns="http://www.w3.org/2000/svg">
<path d="M79.6445 44.5585C79.1448 41.4167 77.3381 38.543 74.7242 36.6656C72.1488 34.8265 69.0736 34.1368 66.0368 34.6349C63.9611 34.9797 62.0775 35.861 60.54 37.1637C61.2703 35.9376 61.77 34.5199 62.0007 33.0257C62.4619 29.9221 61.6547 26.8569 59.7712 24.3664C57.9261 21.9143 55.2353 20.305 52.237 19.8452C56.1963 15.6689 56.696 9.42354 53.3517 4.86404C51.3144 2.06703 48.1624 0.304535 44.7412 0.0363293C41.3201 -0.231877 37.9759 0.994207 35.5542 3.40806C34.1319 4.82572 32.7865 6.28169 31.518 7.77598C29.3269 4.48088 25.5214 2.37355 21.3315 2.4885C18.2178 2.60344 15.2964 3.90616 13.1438 6.16675C10.9912 8.42734 9.87643 11.4159 9.99175 14.5194C9.99175 14.6727 10.0302 15.4007 10.1071 16.7034C9.49203 16.78 8.91544 16.9333 8.3004 17.0866C2.18849 19.0023 -1.30952 25.5159 0.458704 31.6846C1.72721 36.0142 9.37672 49.118 19.9861 65.0188C20.1398 65.2487 20.332 65.4786 20.5627 65.6318C22.2156 68.1223 24.2144 70.4212 26.5208 72.4136C32.3252 77.3946 39.3597 80 46.7785 80C48.3546 80 49.9306 79.885 51.5066 79.6552C51.8141 79.6168 52.1601 79.5402 52.4676 79.5019C60.9628 78.0076 68.4585 73.6014 73.6095 67.0495C78.7604 60.4593 80.913 52.4514 79.6445 44.5585ZM6.37842 29.9988C5.49431 26.9719 7.14721 23.9067 10.0686 23.0254C10.2224 22.9871 10.4146 22.9488 10.5683 22.9105C11.0681 27.9297 11.9522 34.9797 13.5282 43.4474C9.0692 35.9759 6.80126 31.493 6.37842 29.9988ZM56.4654 48.1984C57.1188 51.9533 54.159 55.3634 49.4309 56.3212C47.3936 56.7427 45.3947 56.3596 43.7803 55.2484C42.2427 54.2139 41.2432 52.6813 40.9357 50.9571C40.5513 48.8115 41.1664 46.5892 42.4733 45.0949C43.7418 43.6773 45.5869 42.9876 47.9702 42.9876C48.2777 42.9876 48.5468 42.9876 48.8543 43.0259C52.3139 43.2558 55.5044 42.183 57.8876 40.1906C56.5038 42.5661 55.9656 45.4014 56.4654 48.1984ZM17.795 31.5314C16.3343 21.1863 16.1037 14.7877 16.1037 14.3662C16.0652 12.8719 16.6034 11.4542 17.6028 10.3814C18.6407 9.30859 19.9861 8.69555 21.4852 8.61892C24.2913 8.54229 26.713 10.5347 27.1359 13.255C23.0228 19.0406 19.8708 25.2477 17.795 31.5314ZM51.3913 73.4481C51.1222 73.4864 50.8532 73.5247 50.5841 73.5631C43.2805 74.6359 36.1692 72.5669 30.5186 67.7392C24.6373 62.6816 21.2546 55.2484 21.2546 47.3938C21.2546 42.4512 22.6 24.9412 39.8594 7.73767C40.8973 6.70316 42.3195 6.12843 43.8187 6.12843C43.9725 6.12843 44.1262 6.12843 44.2415 6.12843C45.8944 6.24338 47.3551 7.08631 48.3546 8.42734C49.9306 10.573 49.6231 13.7148 47.5858 15.7455C47.5089 15.8222 45.6254 17.7762 44.2031 19.2322C44.0109 19.4621 43.8187 19.6537 43.6265 19.8452C43.0883 19.9219 42.5117 19.9985 41.9351 20.1135C38.8984 20.6499 35.9386 21.5694 33.1709 22.8721C31.6333 23.6001 30.9798 25.4009 31.6717 26.9335C32.2099 28.0447 33.2862 28.696 34.4778 28.696C34.9007 28.696 35.362 28.6194 35.7848 28.4278C38.0912 27.355 40.5129 26.5887 43.0499 26.1672C46.1635 25.6308 48.1624 25.4393 51.1991 25.8607C52.6598 26.0906 53.9668 26.8569 54.8509 28.0447C55.735 29.2325 56.1194 30.6884 55.8888 32.1827C55.4275 35.5161 52.237 37.0487 49.354 36.8572C43.3574 36.4357 39.821 38.8496 37.9374 40.9569C35.3235 43.8688 34.2088 47.9685 34.9007 51.9916C35.4773 55.3251 37.4761 58.3519 40.3207 60.306C43.319 62.3367 47.0092 63.0647 50.661 62.3367C58.6564 60.7275 63.7689 54.1756 62.5388 47.1639C62.2697 45.708 62.6157 44.2137 63.4614 42.9876C64.3071 41.7615 65.614 40.9569 67.0747 40.6887C68.497 40.4588 69.9193 40.8036 71.1493 41.6466C72.4563 42.5661 73.3404 43.9838 73.571 45.5164C75.6468 58.4286 65.6909 70.9576 51.3913 73.4481Z" fill="white"/>
</svg>
